<svg width="15" height="14" viewBox="0 0 15 14" fill="none" xmlns="http://www.w3.org/2000/svg">
<path d="M7.28534 13.9926C5.60095 13.9926 3.91656 13.9785 2.2357 13.9996C1.29876 14.0136 0.586409 13.6732 0.189856 12.817C-0.210195 11.9467 0.0565097 11.1607 0.6671 10.494C1.69179 9.37454 3.02525 8.75343 4.42537 8.26217C5.50971 7.88319 5.56585 7.71825 4.87804 6.84096C3.85689 5.53907 3.5235 4.08629 3.98673 2.48978C4.47449 0.812413 5.98695 -0.177174 7.67827 0.0263641C9.47495 0.24393 10.6716 1.54232 10.8119 3.42338C10.9137 4.77792 10.4821 5.94996 9.62234 6.98177C9.08895 7.62396 9.19775 7.86256 9.9522 8.19594C11.0365 8.67319 12.1068 9.19606 13.1315 9.7821C13.5596 10.0277 13.907 10.4559 14.2088 10.8629C14.6966 11.5156 14.7457 12.249 14.3386 12.9719C13.9491 13.6632 13.3455 13.9931 12.549 13.9931C10.7944 13.9861 9.03967 13.9896 7.28534 13.9931L7.28534 13.9926Z" fill="#606060"/>
</svg>
