<svg width="23" height="28" viewBox="0 0 23 28" fill="none" xmlns="http://www.w3.org/2000/svg">
<path d="M8.05323 5.80242C8.22203 5.80242 8.38392 5.73536 8.50328 5.616C8.62264 5.49664 8.68969 5.33475 8.68969 5.16595C8.68969 4.99715 8.62264 4.83526 8.50328 4.7159C8.38392 4.59654 8.22203 4.52948 8.05323 4.52948H8.0419C7.96135 4.52943 7.88166 4.546 7.8078 4.57815C7.73395 4.61031 7.66753 4.65735 7.61268 4.71635C7.49707 4.83748 7.43256 4.9985 7.43256 5.16595C7.43256 5.3334 7.49707 5.49442 7.61268 5.61555C7.72027 5.73107 7.87316 5.80355 8.04303 5.80355H8.05549L8.05323 5.80242ZM14.9468 5.80242H14.9581C15.128 5.80242 15.2809 5.72994 15.3873 5.61555C15.5029 5.49442 15.5674 5.3334 15.5674 5.16595C15.5674 4.9985 15.5029 4.83748 15.3873 4.71635C15.3324 4.65706 15.2658 4.60976 15.1918 4.57741C15.1177 4.54506 15.0378 4.52836 14.957 4.52835H14.9445H14.9456C14.7768 4.52835 14.615 4.59541 14.4956 4.71477C14.3762 4.83413 14.3092 4.99602 14.3092 5.16482C14.3092 5.33362 14.3762 5.49551 14.4956 5.61487C14.615 5.73423 14.7768 5.80128 14.9456 5.80128L14.9468 5.80242ZM1.68403 8.80808C2.60249 8.81261 3.34655 9.55553 3.34994 10.474V17.5295C3.34994 17.9825 3.16535 18.3936 2.8675 18.6903C2.71861 18.8456 2.53978 18.9691 2.34183 19.0534C2.14387 19.1377 1.93089 19.181 1.71574 19.1807H1.68063H1.6829H1.67384C1.22991 19.1807 0.804162 19.0043 0.490256 18.6904C0.17635 18.3765 0 17.9508 0 17.5068V10.4502C0 9.99721 0.187995 9.58837 0.490374 9.29619C0.784824 8.99494 1.19592 8.80808 1.65119 8.80808H1.68403ZM18.9977 9.11839V20.0301C18.9977 20.5159 18.7973 20.9564 18.4745 21.2713C18.3147 21.437 18.1231 21.5687 17.9112 21.6586C17.6993 21.7485 17.4714 21.7947 17.2412 21.7945H17.2152H17.2163H15.9909V25.5023C15.9909 25.9486 15.8136 26.3767 15.498 26.6923C15.1824 27.0079 14.7544 27.1852 14.308 27.1852C13.8617 27.1852 13.4337 27.0079 13.1181 26.6923C12.8024 26.3767 12.6251 25.9486 12.6251 25.5023V21.7945H10.3715V25.5114C10.3715 26.4355 9.62174 27.1852 8.69762 27.1852H8.66478C8.21178 27.1852 7.80294 26.9972 7.51076 26.6948C7.35546 26.5438 7.23204 26.3631 7.14781 26.1636C7.06358 25.964 7.02025 25.7495 7.02038 25.5329V25.5012L7.00453 21.7945H5.78596C4.80068 21.7945 4.00113 20.9949 4.00113 20.0097V19.9972V19.9983V9.11952L18.9977 9.11839ZM15.2084 2.50457C16.3345 3.075 17.2918 3.93002 17.9853 4.98475L18.0023 5.01193C18.658 5.99268 19.0476 7.19993 19.0476 8.49664V8.53288V8.53062H3.93771V8.49551C3.93771 7.19766 4.32843 5.99155 4.99773 4.98702L4.98301 5.00967C5.67184 3.95224 6.62628 3.09425 7.75085 2.52156L7.79162 2.5023L6.63194 0.361874C6.61228 0.336347 6.59861 0.306732 6.59193 0.275215C6.58525 0.243698 6.58573 0.211083 6.59334 0.179778C6.60095 0.148472 6.61549 0.119275 6.63589 0.0943399C6.65629 0.0694053 6.68203 0.04937 6.71121 0.0357127C6.73847 0.0183644 6.77027 0.00705034 6.80226 0.00253051C6.83426 -0.00198933 6.86685 0.000389658 6.89785 0.0095077C6.92886 0.0186257 6.95755 0.0342717 6.982 0.0553949C7.00646 0.0765181 7.02611 0.10263 7.03964 0.131975L7.04077 0.133108L8.21857 2.28939C9.18573 1.85564 10.3137 1.6031 11.5017 1.6031C12.6897 1.6031 13.8177 1.85564 14.8369 2.30978L14.7848 2.28939L15.9626 0.133108C15.976 0.103504 15.9956 0.0771291 16.0201 0.0557747C16.0446 0.0344203 16.0734 0.0185862 16.1046 0.00934738C16.1357 0.000108569 16.1685 -0.00231862 16.2007 0.00223062C16.2329 0.00677985 16.2637 0.018199 16.2911 0.0357127C16.3206 0.0491151 16.3456 0.0690233 16.3664 0.0939483C16.3871 0.118873 16.402 0.14817 16.4098 0.179647C16.4177 0.211124 16.4183 0.243967 16.4116 0.275719C16.405 0.307471 16.3913 0.337311 16.3715 0.363006L15.2084 2.50457ZM23 10.4774V17.5102C23 18.4344 22.2503 19.1841 21.3262 19.1841H21.2933C20.8403 19.1841 20.4315 18.9961 20.1393 18.6937C19.984 18.5427 19.8606 18.362 19.7764 18.1624C19.6921 17.9628 19.6488 17.7484 19.6489 17.5317V17.5V10.4445C19.6489 9.99268 19.8369 9.58384 20.1393 9.29392C20.2895 9.14093 20.4688 9.01945 20.6665 8.93661C20.8643 8.85377 21.0766 8.81123 21.2911 8.81148H21.3182H21.3488C21.8018 8.81148 22.2129 8.99607 22.5096 9.29392C22.812 9.58498 23 9.99268 23 10.4457V10.4774Z" fill="white"/>
</svg>
